<svg width="374" height="49" viewBox="0 0 374 49" fill="none" xmlns="http://www.w3.org/2000/svg">
<g filter="url(#filter0_i_3_9)">
<path d="M0.824 48V0.639999H10.296V21.184H10.424L26.168 0.639999H36.6L22.072 19.264L39.096 48H28.792L16.504 26.752L10.296 34.688V48H0.824Z" fill="#00550E"/>
<path d="M45.787 48.448C42.587 48.448 40.507 46.208 40.507 43.136C40.507 39.328 43.611 37.312 50.811 36.512C50.715 34.752 49.979 33.44 47.771 33.44C46.107 33.44 44.475 34.144 42.843 35.136L41.147 32C43.259 30.72 45.787 29.664 48.635 29.664C53.179 29.664 55.515 32.352 55.515 37.568V48H51.675L51.323 46.112H51.195C49.627 47.456 47.835 48.448 45.787 48.448ZM47.323 44.768C48.667 44.768 49.659 44.16 50.811 43.04V39.424C46.427 39.968 44.987 41.152 44.987 42.784C44.987 44.16 45.947 44.768 47.323 44.768ZM60.3093 48V30.112H64.1173L64.5013 33.28H64.5973C65.8773 30.912 67.8293 29.664 69.6853 29.664C70.6453 29.664 71.2213 29.792 71.7653 30.048L70.9653 34.08C70.3253 33.92 69.8453 33.792 69.0773 33.792C67.7013 33.792 66.0052 34.752 65.0133 37.344V48H60.3093ZM79.622 48.448C75.75 48.448 74.054 45.792 74.054 41.28V30.112H78.758V40.704C78.758 43.456 79.526 44.416 81.286 44.416C82.758 44.416 83.718 43.776 84.934 42.176V30.112H89.606V48H85.766L85.414 45.44H85.318C83.75 47.264 82.054 48.448 79.622 48.448ZM94.653 48V30.112H99.357V48H94.653ZM96.989 27.2C95.357 27.2 94.269 26.176 94.269 24.608C94.269 23.072 95.357 22.08 96.989 22.08C98.621 22.08 99.741 23.072 99.741 24.608C99.741 26.176 98.621 27.2 96.989 27.2ZM103.124 48V45.504L111.156 33.792H104.02V30.112H117.044V32.608L109.012 44.32H117.3V48H103.124ZM124.318 48.448C121.118 48.448 119.038 46.208 119.038 43.136C119.038 39.328 122.142 37.312 129.342 36.512C129.246 34.752 128.51 33.44 126.302 33.44C124.638 33.44 123.006 34.144 121.374 35.136L119.678 32C121.79 30.72 124.318 29.664 127.166 29.664C131.71 29.664 134.046 32.352 134.046 37.568V48H130.206L129.854 46.112H129.726C128.158 47.456 126.366 48.448 124.318 48.448ZM125.854 44.768C127.198 44.768 128.19 44.16 129.342 43.04V39.424C124.958 39.968 123.518 41.152 123.518 42.784C123.518 44.16 124.478 44.768 125.854 44.768ZM141.785 48L137.177 30.112H141.849L143.833 38.944C144.153 40.704 144.377 42.4 144.697 44.16H144.857C145.177 42.4 145.497 40.672 145.945 38.944L148.121 30.112H152.281L154.521 38.944C154.937 40.704 155.289 42.4 155.673 44.16H155.833C156.153 42.4 156.377 40.704 156.729 38.944L158.649 30.112H163.033L158.585 48H153.049L151.161 40.192C150.777 38.528 150.489 36.896 150.137 34.976H149.977C149.657 36.896 149.369 38.528 148.985 40.224L147.161 48H141.785ZM170.318 48.448C167.118 48.448 165.038 46.208 165.038 43.136C165.038 39.328 168.142 37.312 175.342 36.512C175.246 34.752 174.51 33.44 172.302 33.44C170.638 33.44 169.006 34.144 167.374 35.136L165.678 32C167.79 30.72 170.318 29.664 173.166 29.664C177.71 29.664 180.046 32.352 180.046 37.568V48H176.206L175.854 46.112H175.726C174.158 47.456 172.366 48.448 170.318 48.448ZM171.854 44.768C173.198 44.768 174.19 44.16 175.342 43.04V39.424C170.958 39.968 169.518 41.152 169.518 42.784C169.518 44.16 170.478 44.768 171.854 44.768ZM197.211 48.448C194.811 48.448 192.155 47.424 190.395 45.952L192.507 42.976C194.139 44.224 195.643 44.96 197.307 44.96C199.099 44.96 199.931 44.16 199.931 43.04C199.931 41.728 198.043 41.088 196.187 40.384C193.915 39.488 191.387 38.144 191.387 35.104C191.387 31.936 193.947 29.664 198.043 29.664C200.635 29.664 202.683 30.72 204.155 31.872L202.011 34.688C200.763 33.792 199.483 33.152 198.171 33.152C196.539 33.152 195.803 33.856 195.803 34.912C195.803 36.192 197.435 36.704 199.355 37.376C201.723 38.272 204.315 39.488 204.315 42.784C204.315 45.952 201.851 48.448 197.211 48.448ZM213.278 48.448C209.406 48.448 207.71 45.792 207.71 41.28V30.112H212.414V40.704C212.414 43.456 213.182 44.416 214.942 44.416C216.414 44.416 217.374 43.776 218.59 42.176V30.112H223.262V48H219.422L219.07 45.44H218.974C217.406 47.264 215.71 48.448 213.278 48.448ZM228.309 48V30.112H232.117L232.501 32.48H232.597C234.101 30.944 235.765 29.664 238.069 29.664C240.661 29.664 242.165 30.784 242.997 32.768C244.661 31.072 246.389 29.664 248.725 29.664C252.533 29.664 254.261 32.352 254.261 36.832V48H249.557V37.44C249.557 34.624 248.789 33.696 247.061 33.696C246.037 33.696 244.917 34.336 243.637 35.68V48H238.933V37.44C238.933 34.624 238.133 33.696 236.405 33.696C235.413 33.696 234.229 34.336 233.013 35.68V48H228.309ZM259.153 48V30.112H262.961L263.345 32.48H263.441C264.945 30.944 266.609 29.664 268.913 29.664C271.505 29.664 273.009 30.784 273.841 32.768C275.505 31.072 277.233 29.664 279.569 29.664C283.377 29.664 285.105 32.352 285.105 36.832V48H280.401V37.44C280.401 34.624 279.633 33.696 277.905 33.696C276.881 33.696 275.761 34.336 274.481 35.68V48H269.777V37.44C269.777 34.624 268.977 33.696 267.249 33.696C266.257 33.696 265.073 34.336 263.857 35.68V48H259.153ZM297.805 48.448C292.781 48.448 288.877 44.992 288.877 39.072C288.877 33.248 292.973 29.664 297.197 29.664C302.157 29.664 304.685 33.248 304.685 38.208C304.685 39.104 304.589 39.936 304.493 40.384H293.421C293.837 43.328 295.757 44.832 298.413 44.832C299.853 44.832 301.133 44.384 302.445 43.584L304.013 46.496C302.253 47.712 300.013 48.448 297.805 48.448ZM293.357 37.248H300.685C300.685 34.816 299.597 33.28 297.293 33.28C295.405 33.28 293.741 34.624 293.357 37.248ZM308.591 48V30.112H312.399L312.783 33.28H312.879C314.159 30.912 316.111 29.664 317.967 29.664C318.927 29.664 319.503 29.792 320.047 30.048L319.247 34.08C318.607 33.92 318.127 33.792 317.359 33.792C315.983 33.792 314.286 34.752 313.295 37.344V48H308.591ZM332.401 34.816C330.353 34.816 329.265 33.248 329.265 30.464C329.265 27.2 330.865 24.736 334.097 23.072L335.185 25.184C333.073 26.272 332.049 27.648 332.049 29.792L332.273 32.736L330.545 30.432C331.089 30.016 331.697 29.696 332.401 29.696C333.777 29.696 334.929 30.624 334.929 32.128C334.929 33.792 333.873 34.816 332.401 34.816ZM339.032 48V45.312C345.208 39.392 349.272 35.392 349.272 31.936C349.272 29.6 348.024 28.192 345.752 28.192C343.992 28.192 342.616 29.376 341.4 30.656L338.808 28.096C340.984 25.76 343.128 24.512 346.36 24.512C350.808 24.512 353.816 27.328 353.816 31.712C353.816 35.712 350.072 39.904 345.848 44.32C347.032 44.192 348.6 44.032 349.72 44.032H354.904V48H339.032ZM365.299 48.448C361.555 48.448 359.027 47.072 357.363 45.152L359.603 42.176C361.011 43.552 362.707 44.64 364.851 44.64C367.283 44.64 368.915 43.488 368.915 41.472C368.915 39.264 367.539 37.856 362.387 37.856V34.464C366.739 34.464 368.147 33.024 368.147 31.04C368.147 29.248 366.995 28.192 364.979 28.192C363.283 28.192 361.907 29.024 360.499 30.336L358.099 27.424C360.147 25.664 362.419 24.512 365.171 24.512C369.747 24.512 372.851 26.752 372.851 30.688C372.851 33.184 371.411 34.912 368.915 35.936V36.064C371.603 36.8 373.651 38.752 373.651 41.76C373.651 46.016 369.843 48.448 365.299 48.448Z" fill="#1E1E1E"/>
</g>
<defs>
<filter id="filter0_i_3_9" x="0.824001" y="0.639999" width="372.827" height="51.808" filterUnits="userSpaceOnUse" color-interpolation-filters="sRGB">
<feFlood flood-opacity="0" result="BackgroundImageFix"/>
<feBlend mode="normal" in="SourceGraphic" in2="BackgroundImageFix" result="shape"/>
<feColorMatrix in="SourceAlpha" type="matrix" values="0 0 0 0 0 0 0 0 0 0 0 0 0 0 0 0 0 0 127 0" result="hardAlpha"/>
<feOffset dy="4"/>
<feGaussianBlur stdDeviation="2"/>
<feComposite in2="hardAlpha" operator="arithmetic" k2="-1" k3="1"/>
<feColorMatrix type="matrix" values="0 0 0 0 0 0 0 0 0 0 0 0 0 0 0 0 0 0 0.25 0"/>
<feBlend mode="normal" in2="shape" result="effect1_innerShadow_3_9"/>
</filter>
</defs>
</svg>
