<svg width="300" height="33" viewBox="0 0 300 33" fill="none" xmlns="http://www.w3.org/2000/svg">
<g clip-path="url(#clip0_3_7)">
<rect width="300" height="33" fill="white"/>
<g filter="url(#filter0_i_3_7)">
<path d="M8.64 31V1.4H14.56V14.24H14.64L24.48 1.4H31L21.92 13.04L32.56 31H26.12L18.44 17.72L14.56 22.68V31H8.64Z" fill="#00550E"/>
<path d="M37.6059 31.336C35.2059 31.336 33.6459 29.656 33.6459 27.352C33.6459 24.496 35.9739 22.984 41.3739 22.384C41.3019 21.064 40.7499 20.08 39.0939 20.08C37.8459 20.08 36.6219 20.608 35.3979 21.352L34.1259 19C35.7099 18.04 37.6059 17.248 39.7419 17.248C43.1499 17.248 44.9019 19.264 44.9019 23.176V31H42.0219L41.7579 29.584H41.6619C40.4859 30.592 39.1419 31.336 37.6059 31.336ZM38.7579 28.576C39.7659 28.576 40.5099 28.12 41.3739 27.28V24.568C38.0859 24.976 37.0059 25.864 37.0059 27.088C37.0059 28.12 37.7259 28.576 38.7579 28.576ZM48.4976 31V17.584H51.3536L51.6416 19.96H51.7136C52.6736 18.184 54.1376 17.248 55.5296 17.248C56.2496 17.248 56.6816 17.344 57.0896 17.536L56.4896 20.56C56.0096 20.44 55.6496 20.344 55.0736 20.344C54.0416 20.344 52.7696 21.064 52.0256 23.008V31H48.4976ZM62.9821 31.336C60.0781 31.336 58.8061 29.344 58.8061 25.96V17.584H62.3341V25.528C62.3341 27.592 62.9101 28.312 64.2301 28.312C65.3341 28.312 66.0541 27.832 66.9661 26.632V17.584H70.4701V31H67.5901L67.3261 29.08H67.2541C66.0781 30.448 64.8061 31.336 62.9821 31.336ZM74.2554 31V17.584H77.7834V31H74.2554ZM76.0074 15.4C74.7834 15.4 73.9674 14.632 73.9674 13.456C73.9674 12.304 74.7834 11.56 76.0074 11.56C77.2314 11.56 78.0714 12.304 78.0714 13.456C78.0714 14.632 77.2314 15.4 76.0074 15.4ZM80.6084 31V29.128L86.6324 20.344H81.2804V17.584H91.0484V19.456L85.0244 28.24H91.2404V31H80.6084ZM96.5043 31.336C94.1043 31.336 92.5443 29.656 92.5443 27.352C92.5443 24.496 94.8723 22.984 100.272 22.384C100.2 21.064 99.6483 20.08 97.9923 20.08C96.7443 20.08 95.5203 20.608 94.2963 21.352L93.0243 19C94.6083 18.04 96.5043 17.248 98.6403 17.248C102.048 17.248 103.8 19.264 103.8 23.176V31H100.92L100.656 29.584H100.56C99.3843 30.592 98.0403 31.336 96.5043 31.336ZM97.6563 28.576C98.6643 28.576 99.4083 28.12 100.272 27.28V24.568C96.9843 24.976 95.9043 25.864 95.9043 27.088C95.9043 28.12 96.6243 28.576 97.6563 28.576ZM109.604 31L106.148 17.584H109.652L111.14 24.208C111.38 25.528 111.548 26.8 111.788 28.12H111.908C112.148 26.8 112.388 25.504 112.724 24.208L114.356 17.584H117.476L119.156 24.208C119.468 25.528 119.732 26.8 120.02 28.12H120.14C120.38 26.8 120.548 25.528 120.812 24.208L122.252 17.584H125.54L122.204 31H118.052L116.636 25.144C116.348 23.896 116.132 22.672 115.868 21.232H115.748C115.508 22.672 115.292 23.896 115.004 25.168L113.636 31H109.604ZM131.004 31.336C128.604 31.336 127.044 29.656 127.044 27.352C127.044 24.496 129.372 22.984 134.772 22.384C134.7 21.064 134.148 20.08 132.492 20.08C131.244 20.08 130.02 20.608 128.796 21.352L127.524 19C129.108 18.04 131.004 17.248 133.14 17.248C136.548 17.248 138.3 19.264 138.3 23.176V31H135.42L135.156 29.584H135.06C133.884 30.592 132.54 31.336 131.004 31.336ZM132.156 28.576C133.164 28.576 133.908 28.12 134.772 27.28V24.568C131.484 24.976 130.404 25.864 130.404 27.088C130.404 28.12 131.124 28.576 132.156 28.576ZM151.174 31.336C149.374 31.336 147.382 30.568 146.062 29.464L147.646 27.232C148.87 28.168 149.998 28.72 151.246 28.72C152.59 28.72 153.214 28.12 153.214 27.28C153.214 26.296 151.798 25.816 150.406 25.288C148.702 24.616 146.806 23.608 146.806 21.328C146.806 18.952 148.726 17.248 151.798 17.248C153.742 17.248 155.278 18.04 156.382 18.904L154.774 21.016C153.838 20.344 152.878 19.864 151.894 19.864C150.67 19.864 150.118 20.392 150.118 21.184C150.118 22.144 151.342 22.528 152.782 23.032C154.558 23.704 156.502 24.616 156.502 27.088C156.502 29.464 154.654 31.336 151.174 31.336ZM163.224 31.336C160.32 31.336 159.048 29.344 159.048 25.96V17.584H162.576V25.528C162.576 27.592 163.152 28.312 164.472 28.312C165.576 28.312 166.296 27.832 167.208 26.632V17.584H170.712V31H167.832L167.568 29.08H167.496C166.32 30.448 165.048 31.336 163.224 31.336ZM174.498 31V17.584H177.354L177.642 19.36H177.714C178.842 18.208 180.09 17.248 181.818 17.248C183.762 17.248 184.89 18.088 185.514 19.576C186.762 18.304 188.058 17.248 189.81 17.248C192.666 17.248 193.962 19.264 193.962 22.624V31H190.434V23.08C190.434 20.968 189.858 20.272 188.562 20.272C187.794 20.272 186.954 20.752 185.994 21.76V31H182.466V23.08C182.466 20.968 181.866 20.272 180.57 20.272C179.826 20.272 178.938 20.752 178.026 21.76V31H174.498ZM197.63 31V17.584H200.486L200.774 19.36H200.846C201.974 18.208 203.222 17.248 204.95 17.248C206.894 17.248 208.022 18.088 208.646 19.576C209.894 18.304 211.19 17.248 212.942 17.248C215.798 17.248 217.094 19.264 217.094 22.624V31H213.566V23.08C213.566 20.968 212.99 20.272 211.694 20.272C210.926 20.272 210.086 20.752 209.126 21.76V31H205.598V23.08C205.598 20.968 204.998 20.272 203.702 20.272C202.958 20.272 202.07 20.752 201.158 21.76V31H197.63ZM226.619 31.336C222.851 31.336 219.923 28.744 219.923 24.304C219.923 19.936 222.995 17.248 226.163 17.248C229.883 17.248 231.779 19.936 231.779 23.656C231.779 24.328 231.707 24.952 231.635 25.288H223.331C223.643 27.496 225.083 28.624 227.075 28.624C228.155 28.624 229.115 28.288 230.099 27.688L231.275 29.872C229.955 30.784 228.275 31.336 226.619 31.336ZM223.283 22.936H228.779C228.779 21.112 227.963 19.96 226.235 19.96C224.819 19.96 223.571 20.968 223.283 22.936ZM234.709 31V17.584H237.565L237.853 19.96H237.925C238.885 18.184 240.349 17.248 241.741 17.248C242.461 17.248 242.893 17.344 243.301 17.536L242.701 20.56C242.221 20.44 241.861 20.344 241.285 20.344C240.253 20.344 238.98 21.064 238.237 23.008V31H234.709ZM252.567 21.112C251.031 21.112 250.215 19.936 250.215 17.848C250.215 15.4 251.415 13.552 253.839 12.304L254.655 13.888C253.071 14.704 252.303 15.736 252.303 17.344L252.471 19.552L251.175 17.824C251.583 17.512 252.039 17.272 252.567 17.272C253.599 17.272 254.463 17.968 254.463 19.096C254.463 20.344 253.671 21.112 252.567 21.112ZM257.539 31V28.984C262.171 24.544 265.219 21.544 265.219 18.952C265.219 17.2 264.283 16.144 262.579 16.144C261.259 16.144 260.227 17.032 259.315 17.992L257.371 16.072C259.003 14.32 260.611 13.384 263.035 13.384C266.371 13.384 268.627 15.496 268.627 18.784C268.627 21.784 265.819 24.928 262.651 28.24C263.539 28.144 264.715 28.024 265.555 28.024H269.443V31H257.539ZM277.24 31.336C274.432 31.336 272.536 30.304 271.288 28.864L272.968 26.632C274.024 27.664 275.296 28.48 276.904 28.48C278.728 28.48 279.952 27.616 279.952 26.104C279.952 24.448 278.92 23.392 275.056 23.392V20.848C278.32 20.848 279.376 19.768 279.376 18.28C279.376 16.936 278.512 16.144 277 16.144C275.728 16.144 274.696 16.768 273.64 17.752L271.84 15.568C273.376 14.248 275.08 13.384 277.144 13.384C280.576 13.384 282.904 15.064 282.904 18.016C282.904 19.888 281.824 21.184 279.952 21.952V22.048C281.968 22.6 283.504 24.064 283.504 26.32C283.504 29.512 280.648 31.336 277.24 31.336Z" fill="#1E1E1E"/>
</g>
</g>
<defs>
<filter id="filter0_i_3_7" x="8.64" y="1.4" width="274.863" height="33.936" filterUnits="userSpaceOnUse" color-interpolation-filters="sRGB">
<feFlood flood-opacity="0" result="BackgroundImageFix"/>
<feBlend mode="normal" in="SourceGraphic" in2="BackgroundImageFix" result="shape"/>
<feColorMatrix in="SourceAlpha" type="matrix" values="0 0 0 0 0 0 0 0 0 0 0 0 0 0 0 0 0 0 127 0" result="hardAlpha"/>
<feOffset dy="4"/>
<feGaussianBlur stdDeviation="2"/>
<feComposite in2="hardAlpha" operator="arithmetic" k2="-1" k3="1"/>
<feColorMatrix type="matrix" values="0 0 0 0 0 0 0 0 0 0 0 0 0 0 0 0 0 0 0.25 0"/>
<feBlend mode="normal" in2="shape" result="effect1_innerShadow_3_7"/>
</filter>
<clipPath id="clip0_3_7">
<rect width="300" height="33" fill="white"/>
</clipPath>
</defs>
</svg>
